<?xml version="1.0" encoding="UTF-8"?>
<svg id="Layer_2" data-name="Layer 2" xmlns="http://www.w3.org/2000/svg" viewBox="0 0 50.52 58.94">
  <defs>
    <style>
      .cls-1 {
        fill: #a391bb;
      }
    </style>
  </defs>
  <g id="OBJECTS">
    <path class="cls-1" d="m23.48,0v26.53h0c-2.03-.86-4.26-1.34-6.61-1.34C7.56,25.19,0,32.74,0,42.06s7.56,16.88,16.88,16.88c8.53,0,15.74-5.93,16.88-14.15v-27.02c10.27,3.71,13.55,24.29,13.55,24.29,0,0,2.43-5.05,3.2-18.03C51.48,7.44,23.48,0,23.48,0Zm-6.61,51.27c-5.08,0-9.2-4.12-9.2-9.2s4.12-9.2,9.2-9.2,9.2,4.12,9.2,9.2-4.12,9.2-9.2,9.2Z"/>
  </g>
</svg>