<?xml version="1.0" encoding="UTF-8"?>
<svg id="Layer_2" data-name="Layer 2" xmlns="http://www.w3.org/2000/svg" xmlns:xlink="http://www.w3.org/1999/xlink" viewBox="0 0 21.12 21.12">
  <defs>
    <style>
      .cls-1 {
        fill: #3c4868;
      }

      .cls-2 {
        fill: url(#linear-gradient-2);
      }

      .cls-3 {
        fill: #fff;
      }

      .cls-4 {
        fill: #665dff;
      }

      .cls-5 {
        clip-path: url(#clippath);
      }

      .cls-6 {
        fill: none;
      }

      .cls-7 {
        fill: url(#linear-gradient);
      }
    </style>
    <linearGradient id="linear-gradient" x1="0" y1="10.56" x2="21.12" y2="10.56" gradientUnits="userSpaceOnUse">
      <stop offset="0" stop-color="#c6c3ff"/>
      <stop offset="1" stop-color="#948eff"/>
    </linearGradient>
    <linearGradient id="linear-gradient-2" x1=".39" y1="10.56" x2="20.74" y2="10.56" gradientUnits="userSpaceOnUse">
      <stop offset="0" stop-color="#948eff"/>
      <stop offset="1" stop-color="#c6c3ff"/>
    </linearGradient>
    <clipPath id="clippath">
      <path class="cls-6" d="m10.56,20.77h0C4.93,20.77.36,16.2.36,10.56H.36C.36,4.93,4.93.36,10.56.36h0c5.64,0,10.2,4.57,10.2,10.2h0c0,5.64-4.57,10.2-10.2,10.2Z"/>
    </clipPath>
  </defs>
  <g id="Layer_1-2" data-name="Layer 1">
    <g>
      <path class="cls-7" d="m20.2,14.88c2.39-5.32,0-11.57-5.31-13.96-5.32-2.39-11.57,0-13.96,5.31s0,11.57,5.31,13.96c5.32,2.39,11.57,0,13.96-5.31Z"/>
      <path class="cls-2" d="m19.84,14.73c2.3-5.13,0-11.15-5.12-13.45-5.13-2.3-11.15,0-13.45,5.12-2.3,5.13,0,11.15,5.12,13.45,5.12,2.3,11.15,0,13.45-5.12Z"/>
      <g class="cls-5">
        <path class="cls-4" d="m5.89,13.85c.31-.18.65-.32,1-.43l1.74-.52.14-.04.05-.02h.05s1.64-.51,1.64-.51l1.65.35v.14h0s.09.03.09.03h.01s.24.07.24.07l1.64.49c.37.11.73.27,1.05.46,1.56.88,2.56,2.55,2.56,4.4v2.48H3.29v-2.48c0-1.86,1.02-3.55,2.6-4.43Z"/>
        <path class="cls-3" d="m6.5,8.3c.05-.42.45-.34.56-.32-.01-.13-.02-.26-.02-.39,0-2.2,1.55-3.98,3.47-3.98s3.47,1.78,3.47,3.98c0,.13,0,.26-.02.39.09-.02.52-.12.58.31.06.48-.71,1.46-1.02,1.28,0,0,0,0,0,0-.32.64-.79,1.17-1.35,1.52v1.74h0c-.98.71-2.31.71-3.29,0,0,0,0,0,0,0v-1.74c-.56-.35-1.03-.88-1.35-1.51-.32.16-1.07-.8-1.01-1.28Z"/>
        <path class="cls-1" d="m14.57,4.81c-.87-1.22-1.82-1.87-2.74-2.16.08-.19.31-.41.31-.41-.83-.24-1.26.2-1.26.2-.31-.39-1.26-.3-1.26-.3.27.07.46.23.58.36-1.46.17-2.64,1.08-3.02,1.75-.73,1.31-.13,4.01-.13,4.01,0,0,.24-1.21.48-1.76.25-.55,2.06-1.7,2.06-1.7,0,0,.41.67,1.05,1.35.65.68,1.56,1,2.5,1.01.2,0,.42.06.64.25.4.34-.02,1.59-.02,1.59,0,0,1.79-2.82.8-4.2Z"/>
      </g>
    </g>
  </g>
</svg>